<svg xmlns="http://www.w3.org/2000/svg" width="320" height="180" fill="none"><linearGradient id="d" x1="160" x2="160" y1="0" y2="180" gradientUnits="userSpaceOnUse"><stop offset="0" stop-color="#fff" stop-opacity=".25"/><stop offset="1" stop-color="#fff" stop-opacity=".75"/></linearGradient><clipPath id="a"><path d="M0 0h320v180H0z"/></clipPath><clipPath id="b"><path d="M-240-400h800v800h-800z"/></clipPath><g clip-path="url(#a)"><path fill="#fff" d="M0 0h320v180H0z"/><g clip-path="url(#b)"><path fill="#9099a4" d="M321.92 133.2c-1.28.4-2.64.56-4 .56s-2.72-.24-4-.56v9.36h8v-5.6zm0-36.24c0-3.44.88-6.64 2.4-9.44-1.92-1.12-4.08-1.76-6.4-1.76-7.04 0-12.8 5.76-12.8 12.8v6.4h18.48c-1.12-2.48-1.68-5.2-1.68-8"/><path fill="#c7ccd1" d="M321.92 133.2c6-1.76 10.4-7.28 10.4-13.84v-4.88c-2.24-1.2-4.16-2.8-5.76-4.72h-23.04v9.6c0 6.56 4.4 12.08 10.4 13.84 1.28.4 2.64.56 4 .56s2.72-.24 4-.56m-4-17.04c2.24 0 4 1.76 4 4s-1.76 4-4 4-4-1.76-4-4 1.76-4 4-4"/><path fill="#e3e5e8" d="M326.48 109.76c-1.2-1.44-2.24-3.04-2.96-4.8h-20.08v4.8z"/><path fill="#c7ccd1" d="M308.32 142.56v6.4h19.2v-6.4h-13.6z"/><path fill="#e3e5e8" d="M317.92 124.16a4 4 0 1 0 0-8 4 4 0 0 0 0 8m-15.2 46.88a4 4 0 1 0 0-8 4 4 0 0 0 0 8"/><path fill="#4f5660" d="m287.52.32 11.2 19.36-11.2 19.36h16l11.2-19.36L303.52.32zm21.04 19.44c0 1.76-1.44 3.2-3.2 3.2s-3.2-1.44-3.2-3.2 1.44-3.2 3.2-3.2 3.2 1.44 3.2 3.2"/><path fill="#9099a4" d="M298.72 19.76 287.52.4h-22.4l-11.2 19.36 11.2 19.36h22.4zm-19.2 0c0 1.76-1.44 3.2-3.2 3.2s-3.2-1.44-3.2-3.2 1.44-3.2 3.2-3.2 3.2 1.44 3.2 3.2m-14.4-8c0-1.76 1.44-3.2 3.2-3.2s3.2 1.44 3.2 3.2-1.44 3.2-3.2 3.2c-1.84 0-3.2-1.44-3.2-3.2m19.2 19.2c-1.76 0-3.2-1.44-3.2-3.2s1.44-3.2 3.2-3.2 3.2 1.44 3.2 3.2-1.44 3.2-3.2 3.2m17.84-11.2c0 1.76 1.44 3.2 3.2 3.2s3.2-1.44 3.2-3.2-1.44-3.2-3.2-3.2-3.2 1.44-3.2 3.2"/><path fill="#c7ccd1" d="M239.52 72.96c5.52 0 10.16 3.76 11.52 8.8h16.24c-1.6-13.92-13.44-24.8-27.84-24.8s-26.24 10.88-27.84 24.8h16.24c1.52-5.12 6.16-8.8 11.68-8.8"/><path fill="#4f5660" d="M239.52 96.96c-5.52 0-10.16-3.76-11.52-8.8h-16.24c1.6 13.92 13.44 24.8 27.84 24.8s26.24-10.88 27.84-24.8H251.2c-1.6 5.04-6.24 8.8-11.68 8.8"/><path fill="#747f8d" d="M251.52 84.96c0 1.12-.16 2.16-.48 3.2h18.8v-6.4h-18.8c.24.96.48 2.08.48 3.2m-23.6 3.2c-.32-1.04-.48-2.08-.48-3.2s.16-2.16.48-3.2h-18.8v6.4h2.56z"/><path fill="#9099a4" d="M239.52 96.96c5.52 0 10.16-3.76 11.52-8.8.32-1.04.48-2.08.48-3.2s-.16-2.16-.48-3.2c-1.44-5.04-6-8.8-11.52-8.8s-10.16 3.76-11.52 8.8c-.32 1.04-.48 2.08-.48 3.2s.16 2.16.48 3.2c1.36 5.04 6 8.8 11.52 8.8m-6.4-12c0-3.52 2.88-6.4 6.4-6.4s6.4 2.88 6.4 6.4-2.88 6.4-6.4 6.4c-3.6 0-6.4-2.88-6.4-6.4"/><path fill="#e3e5e8" d="M239.52 91.36a6.4 6.4 0 1 0 0-12.8 6.4 6.4 0 0 0 0 12.8"/><path fill="#9099a4" d="M86.8 31.76v-49.6H34v65.6h36.8c8.8 0 16-7.2 16-16m-30.4.8h-4.8v4.8h-6.4v-4.8h-4.8v-6.4h4.8v-4.8h6.4v4.8h4.8zm12.8-4c-1.76 0-3.2-1.44-3.2-3.2s1.44-3.2 3.2-3.2 3.2 1.44 3.2 3.2-1.44 3.2-3.2 3.2m8 8c-1.76 0-3.2-1.44-3.2-3.2s1.44-3.2 3.2-3.2 3.2 1.44 3.2 3.2-1.44 3.2-3.2 3.2m3.2-22.4h-40v-25.6h40z"/><path fill="#747f8d" d="M46.8-11.44h-6.4v25.6h6.4zm33.6 0H74v25.6h6.4z"/><path fill="#4f5660" d="M51.6 21.36h-6.4v4.8h-4.8v6.4h4.8v4.8h6.4v-4.8h4.8v-6.4h-4.8z"/><path fill="#c7ccd1" d="M74-11.44H46.8v25.6H74z"/><path fill="#e3e5e8" d="M69.2 28.56a3.2 3.2 0 1 0 0-6.4 3.2 3.2 0 0 0 0 6.4m8 8a3.2 3.2 0 1 0 0-6.4 3.2 3.2 0 0 0 0 6.4m35.2 44.72H94.8v10h17.6z"/><path fill="#9099a4" d="M114 151.28h12v-39.2l-12-8v-6.4H93.2v6.4l-12 8v39.2h12zm-9.2-39.92c1.36 0 2.4 1.04 2.4 2.4s-1.04 2.4-2.4 2.4-2.4-1.04-2.4-2.4 1.04-2.4 2.4-2.4m-16.4 7.92h30.4v24.8H88.4z"/><path fill="#4f5660" d="M118.8 119.28H88.4v24.8h30.4zm-8 12c-2.24 0-4-1.76-4-4s1.76-4 4-4 4 1.76 4 4c0 2.16-1.76 4-4 4"/><path fill="#c7ccd1" d="M118 97.68v-6.4H89.2v6.4H114z"/><path fill="#9099a4" d="M110.8 131.28a4 4 0 1 0 0-8 4 4 0 0 0 0 8"/><path fill="#4f5660" d="M104.8 116.16a2.4 2.4 0 1 0-.001-4.801 2.4 2.4 0 0 0 .001 4.801"/><path fill="#e3e5e8" d="M273.12 19.76c0 1.76 1.44 3.2 3.2 3.2s3.2-1.44 3.2-3.2-1.44-3.2-3.2-3.2c-1.84 0-3.2 1.44-3.2 3.2m11.2 11.2a3.2 3.2 0 1 0 0-6.4 3.2 3.2 0 0 0 0 6.4m-16-16a3.2 3.2 0 1 0 0-6.4 3.2 3.2 0 0 0 0 6.4"/><path fill="#9099a4" d="M178 160.16h6.4v-4.8h4.8v-6.4h-4.8v-4.8H178v4.8h-4.8v6.4h4.8z"/><path fill="#e3e5e8" d="M206.8 151.36a3.2 3.2 0 1 0 0-6.4 3.2 3.2 0 0 0 0 6.4m8 8a3.2 3.2 0 1 0 0-6.4 3.2 3.2 0 0 0 0 6.4"/><path fill="#4f5660" d="M188.4 170.24a4 4 0 1 0 0-8 4 4 0 0 0 0 8m14.4 0a4 4 0 1 0 0-8 4 4 0 0 0 0 8M131.6 46.16c-3.12 0-5.6-2.48-5.6-5.6s2.48-5.6 5.6-5.6h1.76l-.4-4.8h-1.36c-5.76 0-10.4 4.64-10.4 10.4s4.64 10.4 10.4 10.4h3.04l-.4-4.8zm48-16h-1.36l-.4 4.8h1.76c3.12 0 5.6 2.48 5.6 5.6s-2.48 5.6-5.6 5.6h-2.64l-.4 4.8h3.04c5.76 0 10.4-4.64 10.4-10.4s-4.64-10.4-10.4-10.4m-20 38.4h-8v13.2h8z"/><path fill="#9099a4" d="M143.6 81.76v6.4h24v-6.4h-16z"/><path fill="#747f8d" d="M147.6 68.56h16v-5.6h-16z"/><path fill="#9099a4" d="m177.84 34.96.4-4.8.32-4h-45.92l.32 4 .4 4.8.88 11.2.4 4.8.16 1.68A11.24 11.24 0 0 0 146 62.96h19.36c5.84 0 10.72-4.48 11.2-10.32l.16-1.68.4-4.8z"/><path fill="#c7ccd1" d="M183.6 26.16v-8h-56v8h50.96z"/><path fill="#4f5660" d="M29.68 120.16v13.6c0 1.76-1.44 3.2-3.2 3.2h-15.2v3.2h15.2c3.52 0 6.4-2.88 6.4-6.4v-13.6z"/><path fill="#9099a4" d="M31.28 116.96c-1.68 0-3.28-.24-4.8-.56v3.76h9.6v-3.76c-1.6.32-3.2.56-4.8.56m-20 16.24c-1.28.4-2.64.56-4 .56s-2.72-.24-4-.56v9.36h8v-5.6zm0-36.24c0-3.44.88-6.64 2.4-9.44-1.92-1.12-4.08-1.76-6.4-1.76-7.04 0-12.8 5.76-12.8 12.8v6.4h18.48c-1.12-2.48-1.68-5.2-1.68-8"/><path fill="#c7ccd1" d="M7.28 133.76c1.36 0 2.72-.24 4-.56 6-1.76 10.4-7.28 10.4-13.84v-4.88c-2.24-1.2-4.16-2.8-5.76-4.72H-7.12v9.6c0 6.56 4.4 12.08 10.4 13.84 1.28.32 2.56.56 4 .56m0-17.6c2.24 0 4 1.76 4 4s-1.76 4-4 4-4-1.76-4-4 1.76-4 4-4"/><path fill="#e3e5e8" d="M15.92 109.76c-1.2-1.44-2.24-3.04-2.96-4.8H-7.12v4.8z"/><path fill="#c7ccd1" d="M-2.32 142.56v6.4h19.2v-6.4H3.28z"/><path fill="#e3e5e8" d="M7.28 124.16a4 4 0 1 0 0-8 4 4 0 0 0 0 8"/><g fill="#4f5660"><path d="m22.189 93.515-1.131 1.132 1.131 1.131 1.131-1.131zm2.277-2.276-1.131 1.13 1.13 1.132 1.132-1.131zm.01 4.596-1.131 1.131 1.131 1.131 1.131-1.13zm2.253-6.827-1.132 1.131 1.131 1.132 1.132-1.132zm9.02 18.117-1.131 1.132 1.131 1.131 1.131-1.131zm2.319-2.287-1.131 1.131 1.131 1.132 1.132-1.132zm-6.803 2.225-1.131 1.131 1.131 1.131 1.131-1.131zm-4.559.054-1.131 1.132 1.131 1.131 1.131-1.131zm13.625-4.509-1.131 1.131 1.131 1.131 1.132-1.131zM28.984 86.8l-1.131 1.132 1.131 1.131 1.132-1.131zm2.288 2.207-1.132 1.131 1.131 1.131 1.132-1.13zm11.265 11.313-1.131 1.132 1.131 1.131 1.132-1.131zm-13.568 4.567-1.132 1.131 1.132 1.132 1.131-1.132zm-6.741-6.868-1.132 1.131 1.132 1.131 1.131-1.13zm18.079.039-1.132 1.131 1.132 1.131 1.131-1.13zm2.238-6.781-1.131 1.132 1.131 1.131 1.131-1.131zm-2.23-2.262-1.132 1.13 1.132 1.132 1.131-1.131zM31.24 84.48l-1.13 1.131 1.13 1.132 1.132-1.132zm-4.534-.028-1.131 1.131 1.131 1.132 1.131-1.132zm9.042.008-1.13 1.13 1.13 1.132 1.132-1.131zm-11.273 20.395-1.131 1.131 1.131 1.131 1.132-1.131zm6.82-2.279-1.131 1.131 1.131 1.132 1.131-1.132zm-4.564.072-1.131 1.131 1.131 1.131 1.131-1.131zm9.043.008-1.13 1.131 1.13 1.131 1.132-1.131zm-2.262 2.23-1.132 1.132 1.131 1.131 1.132-1.131zm4.532-4.598-1.131 1.132 1.131 1.131 1.131-1.131zm.04-13.536-1.131 1.131 1.131 1.132 1.131-1.132zm-4.575 4.494-1.132 1.131 1.132 1.132 1.131-1.132zm-4.55.024-1.131 1.132 1.131 1.131 1.131-1.131zm2.305 6.78-1.132 1.131 1.132 1.132 1.131-1.132zm-4.582-4.502-1.131 1.131 1.131 1.131 1.132-1.13zm2.301 2.272-1.13 1.132 1.13 1.131 1.132-1.131zm-.032 4.493-1.13 1.132 1.13 1.131 1.132-1.131zm-2.23-2.263-1.131 1.132 1.131 1.132 1.131-1.132zm4.511-4.527-1.13 1.132 1.13 1.131 1.132-1.131zm-8.997-4.547-1.131 1.131 1.131 1.132 1.132-1.132zm11.291 6.844-1.131 1.13 1.131 1.132 1.132-1.131zm9.044.007-1.132 1.132 1.132 1.13 1.13-1.13zm-20.318 6.742-1.131 1.131 1.131 1.131 1.132-1.131zm13.48-9.037-1.13 1.132 1.13 1.13 1.132-1.13zm-11.288 6.796-1.131 1.131 1.13 1.132 1.132-1.132zm-4.504-4.515-1.13 1.131 1.13 1.131 1.132-1.13zm13.594-9.037-1.131 1.132 1.131 1.13 1.132-1.13zm2.237 2.24-1.131 1.13 1.131 1.132 1.132-1.131zm2.281 2.229-1.132 1.131 1.132 1.132 1.131-1.132zm-13.568-4.454-1.131 1.132 1.131 1.131 1.132-1.131zm-4.592 13.568-1.131 1.131 1.13 1.132 1.132-1.132zm.01-9.05L18.77 92.44l1.13 1.132 1.132-1.132zm13.592 9.004-1.131 1.131 1.131 1.131 1.132-1.131z"/><path d="M51.28 96.96c0-11.04-8.96-20-20-20-7.6 0-14.24 4.24-17.6 10.56-1.52 2.8-2.4 6.08-2.4 9.44 0 2.88.56 5.52 1.68 8 .8 1.76 1.76 3.36 2.96 4.8 1.6 1.92 3.52 3.52 5.76 4.72 1.52.8 3.12 1.44 4.8 1.84 1.52.4 3.12.56 4.8.56s3.28-.24 4.8-.56c8.72-2.08 15.2-10 15.2-19.36m-7.12 6.32-.48.48.16.16c-.24.48-.56.96-.88 1.36l-.4-.4-1.12 1.12.56.56c-.32.4-.72.8-1.12 1.12l-.56-.56-1.12 1.12.4.4c-.48.32-.88.64-1.36.88l-.16-.16-.48.48c-1.12.56-2.24.96-3.44 1.2l.56-.56-1.12-1.12-1.12 1.12.72.72c-.56.08-1.2.16-1.84.16s-1.2-.08-1.84-.16l.72-.72-1.12-1.12-1.12 1.12.56.56c-1.2-.24-2.4-.64-3.44-1.2l-.48-.48-.16.16c-.48-.24-.96-.56-1.36-.88l.4-.4-1.12-1.12-.56.56c-.4-.32-.8-.72-1.12-1.12l.56-.56-1.12-1.12-.4.4c-.32-.48-.64-.88-.88-1.36l.16-.16-.48-.48a13.5 13.5 0 0 1-1.2-3.44l.56.56 1.12-1.12-1.12-1.12-.72.72c-.08-.56-.16-1.2-.16-1.84s.08-1.2.16-1.84l.72.72 1.12-1.12-1.12-1.12-.56.56c.24-1.2.64-2.4 1.2-3.44l.48-.48-.16-.16c.24-.48.56-.96.88-1.36l.4.4 1.12-1.12-.56-.56c.32-.4.72-.8 1.12-1.12l.56.56 1.12-1.12-.4-.4c.48-.32.88-.64 1.36-.88l.16.16.48-.48c1.12-.56 2.24-.96 3.44-1.2l-.56.56 1.12 1.12 1.12-1.12-.72-.72c.56-.08 1.2-.16 1.84-.16s1.2.08 1.84.16l-.72.72 1.12 1.12 1.12-1.12-.56-.56c1.2.24 2.4.64 3.44 1.2l.48.48.16-.16c.48.24.96.56 1.36.88l-.4.16 1.12 1.12.56-.56c.4.32.8.72 1.12 1.12l-.56.56 1.12 1.12.4-.4c.32.48.64.88.88 1.36l-.16.16.48.48c.56 1.12.96 2.24 1.2 3.44l-.56-.56-1.12 1.12 1.12 1.12.72-.72c.08.56.16 1.2.16 1.84s-.08 1.2-.16 1.84l-.72-.72-1.12 1.12 1.12 1.12.56-.56c-.24 1.44-.64 2.56-1.2 3.68"/><path d="m38.076 95.795-1.131 1.131 1.131 1.132 1.131-1.132zm2.198-2.257-1.131 1.131 1.13 1.132 1.132-1.131zm-4.508 4.514-1.132 1.131 1.132 1.132 1.131-1.132z"/></g><path fill="#9099a4" d="m45.36 99.76-.56.56-1.12-1.12 1.12-1.12.72.72c.08-.56.16-1.2.16-1.84s-.08-1.2-.16-1.84l-.72.72-1.12-1.12 1.12-1.12.56.56c-.24-1.2-.64-2.4-1.2-3.44l-.48-.48.16-.16c-.24-.48-.56-.96-.88-1.36l-.4.4L41.44 88l.56-.56c-.32-.4-.72-.8-1.12-1.12l-.56.56-1.12-1.28.4-.4c-.48-.32-.88-.64-1.36-.88l-.16.16-.48-.48a13.5 13.5 0 0 0-3.44-1.2l.56.56-1.12 1.12-1.12-1.12.72-.72c-.56-.08-1.2-.16-1.84-.16s-1.2.08-1.84.16l.72.72-1.12 1.12L28 83.36l.56-.56c-1.2.24-2.4.64-3.44 1.2l-.48.48-.16-.16c-.48.24-.96.56-1.36.88l.4.4-1.12 1.12-.56-.56c-.4.32-.8.72-1.12 1.12l.56.56-1.12 1.12-.4-.4c-.32.48-.64.88-.88 1.36l.16.16-.48.48a13.5 13.5 0 0 0-1.2 3.44l.56-.56 1.12 1.12-1.12 1.12-.72-.72c-.08.56-.16 1.2-.16 1.84s.08 1.2.16 1.84l.72-.72 1.12 1.12-1.12 1.12-.56-.56c.24 1.2.64 2.4 1.2 3.44l.48.48-.16.16c.24.48.56.96.88 1.36l.4-.4 1.12 1.12-.56.56c.32.4.72.8 1.12 1.12l.56-.56 1.12 1.12-.4.4c.48.32.88.64 1.36.88l.16-.16.48.48c1.12.56 2.24.96 3.44 1.2l-.56-.56 1.12-1.12 1.12 1.12-.72.72c.56.08 1.2.16 1.84.16s1.2-.08 1.84-.16l-.72-.72 1.12-1.12 1.12 1.12-.56.56c1.2-.24 2.4-.64 3.44-1.2l.48-.48.16.16c.48-.24.96-.56 1.36-.88l-.4-.4 1.12-1.12.56.56c.4-.32.8-.72 1.12-1.12l-.56-.56 1.12-1.12.4.4c.32-.48.64-.88.88-1.36l-.16-.16.48-.48c.56-.88.96-2 1.2-3.28m-1.68-2.8-1.12 1.12-1.12-1.12 1.12-1.12zm-22.64 6.8 1.12-1.12 1.12 1.12-1.12 1.12zm2.32-2.32 1.12-1.12 1.12 1.12-1.12 1.12zm11.28-6.8 1.12-1.12 1.12 1.12-1.12 1.12zm0 2.32-1.12 1.12-1.12-1.12 1.12-1.12zm-1.12-3.44L32.4 92.4l1.12-1.12 1.12 1.12zm-1.12 1.12-1.12 1.12-1.12-1.12 1.12-1.12zm-3.44-1.12-1.12-1.12 1.12-1.12 1.12 1.12zm-1.12 1.12-1.12 1.12-1.12-1.12 1.12-1.12zm1.12 1.2 1.12 1.12-1.12 1.12-1.12-1.12zm-1.12 3.36-1.12 1.12-1.12-1.12 1.12-1.12zm1.12 1.12 1.12 1.12-1.12 1.12-1.12-1.12zm1.2-1.12 1.12-1.12 1.12 1.12-1.12 1.12zm3.36 1.12 1.12 1.12-1.12 1.12-1.12-1.12zm1.12-1.12 1.12-1.12 1.12 1.12-1.12 1.12zm2.24-2.24L38 95.84l1.12 1.12L38 98.08zm2.32-2.32 1.12-1.12 1.12 1.12-1.12 1.12zm-1.12-1.12-1.12-1.12 1.12-1.12 1.12 1.12zm-2.32-2.24-1.12-1.12 1.12-1.12 1.12 1.12zm-2.24-2.24-1.12-1.12 1.12-1.12 1.12 1.12zm-1.12 1.12-1.12 1.12-1.12-1.12 1.12-1.12zm-3.44-1.12-1.12-1.12 1.12-1.12 1.12 1.12zm-1.12 1.12-1.12 1.12-1.12-1.12 1.12-1.12zM25.6 92.4l-1.12 1.12-1.12-1.12 1.12-1.12zm-2.24 2.24-1.12 1.12-1.12-1.12 1.12-1.12zm1.12 1.2 1.12 1.12-1.12 1.12-1.12-1.12zm-1.12 3.36-1.12 1.12-1.12-1.12 1.12-1.12zm3.36 3.36 1.12 1.12-1.12 1.12-1.12-1.12zm2.24 2.32 1.12 1.12-1.12 1.12-1.12-1.12zm1.2-1.12 1.12-1.12 1.12 1.12-1.12 1.12zm3.36 1.12 1.12 1.12-1.12 1.12L32.4 106zm1.12-1.12 1.12-1.12 1.12 1.12-1.12 1.12zm2.24-2.32 1.12-1.12 1.12 1.12-1.12 1.12zm2.32-2.24 1.12-1.12 1.12 1.12-1.12 1.12zm4.48-6.8-1.12 1.12-1.12-1.12 1.12-1.12zm-2.24-2.24-1.12 1.12-1.12-1.12 1.12-1.12zm-2.24-2.24-1.12 1.12-1.12-1.12 1.12-1.12zm-3.44-3.44 1.12 1.12-1.12 1.12-1.12-1.12zm-4.48 0 1.12 1.12-1.12 1.12-1.12-1.12zm-4.56 0 1.12 1.12-1.12 1.12-1.12-1.12zm-2.24 2.24 1.12 1.12-1.12 1.12-1.12-1.12zm-2.24 2.32 1.12 1.12-1.12 1.12-1.12-1.12zm-1.2 3.36-1.12 1.12-1.12-1.12 1.12-1.12zm-2.24 4.56 1.12-1.12 1.12 1.12-1.12 1.12zm0 4.48 1.12-1.12 1.12 1.12-1.12 1.12zm4.56 4.56 1.12-1.12L25.6 106l-1.12 1.12zm3.36 3.36-1.12-1.12 1.12-1.12 1.12 1.12zm4.56 0-1.12-1.12 1.12-1.12 1.12 1.12zm4.48 0-1.12-1.12 1.12-1.12 1.12 1.12zm2.32-2.24L36.96 106l1.12-1.12L39.2 106zm2.24-2.24-1.12-1.12 1.12-1.12 1.12 1.12zm2.24-2.32-1.12-1.12 1.12-1.12 1.12 1.12z"/><path fill="#747f8d" d="m265.12 134.56-2.4 5.6-5.6 2.4 5.6 2.32 2.4 5.68 2.32-5.68 5.68-2.32-5.68-2.4z"/><path fill="#e3e5e8" d="m180.4 100.96-2.4 5.6-5.6 2.4 5.6 2.32 2.4 5.68 2.32-5.68 5.68-2.32-5.68-2.4z"/><path fill="#9099a4" d="m123.52-3.68 5.68-2.4-5.68-2.32-2.32-5.68-2.4 5.68-5.6 2.32 5.6 2.4 2.4 5.6z"/><path fill="#c7ccd1" d="M72.4 73.76a4 4 0 1 0 0-8 4 4 0 0 0 0 8"/><path fill="#747f8d" d="M230.72 33.36a4 4 0 1 0 0-8 4 4 0 0 0 0 8"/><path fill="#9099a4" d="M211.6 18.96a4 4 0 1 0 0-8 4 4 0 0 0 0 8M86.8 226.56v-49.6H34v65.6h36.8c8.8 0 16-7.2 16-16m-30.4.8h-4.8v4.8h-6.4v-4.8h-4.8v-6.4h4.8v-4.8h6.4v4.8h4.8zm12.8-4c-1.76 0-3.2-1.44-3.2-3.2s1.44-3.2 3.2-3.2 3.2 1.44 3.2 3.2-1.44 3.2-3.2 3.2m8 8c-1.76 0-3.2-1.44-3.2-3.2s1.44-3.2 3.2-3.2 3.2 1.44 3.2 3.2-1.44 3.2-3.2 3.2m3.2-22.4h-40v-25.6h40z"/><path fill="#c7ccd1" d="M213.2 179.36h19.2l-12-40h-49.6l-12 40H178l4.88-9.84c1.12 1.84 3.12 3.12 5.52 3.12 2.88 0 5.36-1.92 6.16-4.56h2.16c.8 2.64 3.2 4.56 6.16 4.56 2.32 0 4.4-1.28 5.52-3.12zm1.6-26.4c1.76 0 3.2 1.44 3.2 3.2s-1.44 3.2-3.2 3.2-3.2-1.44-3.2-3.2 1.44-3.2 3.2-3.2m-41.6-4h4.8v-4.8h6.4v4.8h4.8v6.4h-4.8v4.8H178v-4.8h-4.8zm15.2 21.28c-2.24 0-4-1.76-4-4s1.76-4 4-4 4 1.76 4 4-1.76 4-4 4m14.4 0c-2.24 0-4-1.76-4-4s1.76-4 4-4 4 1.76 4 4-1.76 4-4 4m4-18.88c-1.76 0-3.2-1.44-3.2-3.2s1.44-3.2 3.2-3.2 3.2 1.44 3.2 3.2-1.44 3.2-3.2 3.2"/><path fill="#4f5660" d="m-23.12.32 11.2 19.36-11.2 19.36h16l11.2-19.36L-7.12.32zm17.84 16.24c1.76 0 3.2 1.44 3.2 3.2s-1.44 3.2-3.2 3.2-3.2-1.44-3.2-3.2 1.44-3.2 3.2-3.2"/><path fill="#37393e" d="M-240-400.4v800.8h800.8v-800.8zm800 69.52v730.8h-799.2V-399.6H560z"/><path fill="url(#d)" d="M0 0h320v180H0z"/></g></g></svg>