<svg width="68" height="70" viewBox="0 0 68 70" fill="none" xmlns="http://www.w3.org/2000/svg">
        <g clipPath="url(#clip0_680_12350)">
          <path
            d="M37.5414 8.83228H34.6953C20.2754 8.83228 9.23268 20.5201 10.0296 34.94C10.8265 49.36 23.1214 61.0478 37.5414 61.0478H40.3495L37.5414 8.83228Z"
            fill="#FFA719"
          />
          <path d="M25.8911 32.5496V31.0317H10.1051L9.99121 32.5496H25.8911Z" fill="#FF8114" />
          <path
            d="M25.8914 27.1229V25.605H11.2437C11.0919 26.0983 10.9022 26.5916 10.7883 27.1229H25.8914Z"
            fill="#FFC619"
          />
          <path
            d="M25.8913 16.2701V14.7522H18.4916C17.9204 15.228 17.3756 15.7347 16.8599 16.2701H25.8913Z"
            fill="#FFE75C"
          />
          <path
            d="M31.8493 11.2232V10.0469H26.9541C25.9255 10.3597 24.9232 10.7531 23.9563 11.2232H31.8493Z"
            fill="#FFE75C"
          />
          <path
            d="M25.8916 21.6964V20.1785H13.7864C13.4828 20.6718 13.1792 21.1651 12.9136 21.6964H25.8916Z"
            fill="#FFC619"
          />
          <path
            d="M25.8915 37.9761V36.4583H10.1433C10.2192 36.9516 10.2572 37.4828 10.371 37.9761H25.8915Z"
            fill="#FF8114"
          />
          <path
            d="M25.8914 54.2553V52.6995H17.9604C18.4917 53.2307 19.023 53.762 19.5922 54.2553H25.8914Z"
            fill="#FF8114"
          />
          <path
            d="M25.8913 48.8293V47.2734H13.7861C14.0897 47.8047 14.4312 48.336 14.7728 48.8293H25.8913Z"
            fill="#FF8114"
          />
          <path d="M25.8914 43.4028V41.8469H11.3196L11.8888 43.4028H25.8914Z" fill="#FF8114" />
          <path
            d="M40.046 55.6594H21.4138C26.0722 59.1397 31.7266 61.0289 37.5414 61.0479H40.3495L40.046 55.6594Z"
            fill="#FF8114"
          />
          <path
            d="M58.1662 53.608C67.9409 43.5564 67.2537 27.0339 56.6311 16.7039C46.0086 6.37392 29.4733 6.14825 19.6985 16.1999C9.92377 26.2515 10.611 42.774 21.2336 53.104C31.8561 63.434 48.3914 63.6596 58.1662 53.608Z"
            fill="#FFE75C"
          />
          <path
            d="M12.8374 34.94C12.8754 35.5472 12.9513 36.1544 13.0272 36.7615H14.0897C28.5097 36.7615 39.5524 25.0737 38.7555 10.6537C38.7175 10.0466 38.6796 9.43943 38.6037 8.83228H37.5411C23.1212 8.83228 12.0785 20.5201 12.8374 34.94Z"
            fill="#FFF2A6"
          />
          <path
            d="M44.5995 9.78125C43.9748 10.8478 43.6841 12.077 43.7646 13.3104C43.8796 15.0892 44.6633 16.7588 45.9585 17.9836C47.2537 19.2084 48.9644 19.8977 50.7469 19.9132C51.9134 19.9258 53.0597 19.6082 54.0535 18.9972C55.0472 18.3862 55.8479 17.5066 56.3631 16.46C53.0466 13.3059 49.0075 11.0128 44.5995 9.78125Z"
            fill="#FFF2A6"
          />
          <path
            d="M14.507 39.6459C14.1889 39.6317 13.8702 39.6572 13.5583 39.7218C14.4474 43.4377 16.1017 46.9272 18.4156 49.9676C19.1172 49.4269 19.6747 48.7216 20.0387 47.9141C20.4028 47.1066 20.5621 46.2218 20.5027 45.338C20.4069 43.8074 19.7355 42.3698 18.6233 41.3139C17.5111 40.258 16.0405 39.6621 14.507 39.6459Z"
            fill="#FFF2A6"
          />
          <path
            d="M55.8265 51.333C64.4177 42.4984 63.8185 27.9811 54.4881 18.9077C45.1577 9.83425 30.6293 9.64063 22.038 18.4752C13.4468 27.3098 14.046 41.8272 23.3764 50.9006C32.7068 59.974 47.2352 60.1676 55.8265 51.333Z"
            fill="#FFC619"
          />
          <path
            d="M24.905 39.6458H29.1171L28.6238 30.6902H24.4117C24.1377 30.6897 23.8665 30.7453 23.6148 30.8534C23.363 30.9615 23.136 31.1199 22.9477 31.3189C22.7594 31.5179 22.6137 31.7533 22.5196 32.0106C22.4255 32.2679 22.3849 32.5417 22.4004 32.8152L22.6661 37.5587C22.7132 38.1226 22.9686 38.6487 23.3825 39.0346C23.7964 39.4204 24.3392 39.6383 24.905 39.6458Z"
            fill="#FFA719"
          />
          <path
            d="M25.2083 38.052H27.3333L26.9918 32.2461H24.9047C24.7669 32.246 24.6305 32.2737 24.5036 32.3275C24.3768 32.3814 24.2621 32.4603 24.1664 32.5595C24.0708 32.6587 23.9961 32.7761 23.9469 32.9049C23.8977 33.0336 23.875 33.1709 23.8801 33.3086L24.1078 36.9895C24.1265 37.2717 24.2495 37.5367 24.453 37.7331C24.6564 37.9296 24.9256 38.0432 25.2083 38.052Z"
            fill="#FFC226"
          />
          <path
            d="M53.5172 39.6458H49.2671L48.8118 30.6902H53.0239C53.5958 30.6984 54.1436 30.9216 54.5585 31.3154C54.9733 31.7091 55.2247 32.2446 55.2628 32.8152L55.4905 37.5587C55.506 37.8272 55.4665 38.0961 55.3743 38.3488C55.2821 38.6015 55.1392 38.8327 54.9544 39.0282C54.7696 39.2236 54.5468 39.3792 54.2996 39.4854C54.0525 39.5917 53.7862 39.6462 53.5172 39.6458Z"
            fill="#FFA719"
          />
          <path
            d="M33.4809 27.8062C33.2629 27.6472 33.082 27.4427 32.951 27.2068C32.8199 26.9709 32.7418 26.7093 32.722 26.4401C32.6461 25.6053 33.2532 24.8463 34.164 24.5428C34.4317 24.4399 34.7129 24.376 34.9988 24.353H35.1127C36.4788 24.353 37.1618 25.074 38.2623 26.0607C39.0381 26.6941 39.8629 27.2651 40.7289 27.7683L33.4809 27.8062Z"
            fill="#FF9419"
          />
          <path
            d="M37.4653 28.2235C37.5276 28.2192 37.588 28.1997 37.6409 28.1666C37.6939 28.1335 37.7378 28.0879 37.7689 28.0337C37.8095 27.9375 37.8125 27.8295 37.7774 27.7312C37.7423 27.6328 37.6715 27.5512 37.5792 27.5025C36.7345 27.0287 35.9957 26.387 35.4083 25.6169C34.821 24.8468 34.3975 23.9646 34.1639 23.0247C34.1549 22.9744 34.1358 22.9264 34.1078 22.8836C34.0798 22.8409 34.0434 22.8042 34.0009 22.7759C33.9584 22.7475 33.9106 22.7281 33.8603 22.7187C33.8101 22.7092 33.7585 22.7101 33.7086 22.7211C33.6632 22.73 33.62 22.7481 33.5818 22.7741C33.5436 22.8002 33.5111 22.8338 33.4863 22.8729C33.4614 22.9119 33.4448 22.9556 33.4373 23.0012C33.4299 23.0469 33.4318 23.0936 33.4429 23.1385C33.6961 24.1948 34.1636 25.1878 34.8164 26.0559C35.4691 26.9241 36.2932 27.6489 37.2377 28.1855L37.4653 28.2235Z"
            fill="#F77518"
          />
          <path
            d="M36.1372 27.8442H41.6775C43.461 27.3888 44.3718 26.0607 44.1441 24.4669C43.9164 22.8731 42.8159 22.3039 41.3739 22.3419C39.9319 22.3798 39.0592 23.5182 38.452 24.4669C37.0479 26.6299 36.1372 27.8442 36.1372 27.8442Z"
            fill="#FF8114"
          />
          <path
            d="M38.4141 29.2102H38.6418C40.4633 27.9958 41.7155 26.402 42.095 24.8083C42.1125 24.761 42.1192 24.7104 42.1148 24.6602C42.1104 24.61 42.095 24.5614 42.0696 24.5179C42.0442 24.4744 42.0095 24.437 41.968 24.4085C41.9264 24.38 41.8791 24.361 41.8294 24.3529C41.7847 24.3352 41.7368 24.3271 41.6888 24.3292C41.6408 24.3312 41.5938 24.3434 41.5508 24.3649C41.5078 24.3864 41.4698 24.4167 41.4394 24.4539C41.4089 24.491 41.3866 24.5342 41.374 24.5806C41.2222 25.2636 40.5771 27.0092 38.1864 28.565C38.1417 28.5909 38.1035 28.6267 38.0746 28.6695C38.0457 28.7123 38.0269 28.7611 38.0195 28.8123C38.0122 28.8634 38.0166 28.9155 38.0324 28.9647C38.0481 29.0139 38.0749 29.0589 38.1105 29.0963C38.1477 29.139 38.195 29.1717 38.248 29.1916C38.3009 29.2114 38.358 29.2178 38.4141 29.2102Z"
            fill="#ED6C11"
          />
          <path
            d="M53.0238 38.052H50.8988L50.5952 32.2461H52.7203C53.0057 32.2459 53.28 32.3566 53.4853 32.5549C53.6906 32.7531 53.8109 33.0234 53.8207 33.3086L54.0484 36.9895C54.0535 37.1272 54.0308 37.2645 53.9816 37.3933C53.9324 37.522 53.8577 37.6395 53.7621 37.7387C53.6664 37.8379 53.5517 37.9167 53.4249 37.9706C53.2981 38.0244 53.1616 38.0521 53.0238 38.052Z"
            fill="#FFC226"
          />
          <path
            d="M47.2938 43.3649H31.5457C30.1266 43.3483 28.7665 42.7952 27.7386 41.8166C26.7108 40.8381 26.0916 39.5067 26.0054 38.0902L25.6638 31.7151C25.6164 31.0376 25.7103 30.3577 25.9398 29.7186C26.1693 29.0795 26.5292 28.495 26.9968 28.0025C27.4643 27.51 28.0292 27.1202 28.6555 26.8578C29.2819 26.5954 29.956 26.4661 30.6349 26.4783H46.3451C47.7681 26.4942 49.1327 27.0461 50.1667 28.0238C51.2007 29.0015 51.828 30.3332 51.9234 31.753L52.2649 38.1282C52.3066 38.8043 52.2087 39.4817 51.9771 40.1183C51.7455 40.7549 51.3853 41.337 50.919 41.8283C50.4526 42.3196 49.89 42.7096 49.2663 42.9739C48.6427 43.2383 47.9712 43.3714 47.2938 43.3649Z"
            fill="#FFA719"
          />
          <path
            d="M42.1329 39.6077H36.5926C35.5873 39.5902 34.6258 39.1933 33.9009 38.4965C33.176 37.7998 32.7413 36.8547 32.684 35.8509L32.4943 32.3218C32.4726 32.1019 32.4981 31.8799 32.569 31.6705C32.6398 31.4612 32.7545 31.2694 32.9053 31.1078C33.056 30.9462 33.2395 30.8186 33.4435 30.7335C33.6474 30.6484 33.8672 30.6077 34.0881 30.6142H43.3472C43.8074 30.6138 44.2499 30.7912 44.5823 31.1095C44.9147 31.4277 45.1112 31.8621 45.1308 32.3218L45.3585 36.1545C45.3956 36.5981 45.3394 37.0446 45.1935 37.4651C45.0477 37.8857 44.8153 38.2711 44.5114 38.5964C44.2076 38.9217 43.8389 39.1797 43.4293 39.3539C43.0196 39.5281 42.578 39.6146 42.1329 39.6077Z"
            fill="#FFC226"
          />
          <path
            d="M30.7791 34.1046C31.3197 33.5486 31.2829 32.636 30.6969 32.0662C30.111 31.4964 29.1977 31.4851 28.6571 32.041C28.1165 32.5969 28.1532 33.5095 28.7392 34.0794C29.3252 34.6492 30.2384 34.6605 30.7791 34.1046Z"
            fill="#F77518"
          />
          <path
            d="M37.3133 37.4445H35.4919C35.404 37.4497 35.316 37.4368 35.2333 37.4067C35.1506 37.3766 35.0749 37.3299 35.011 37.2695C34.947 37.2091 34.896 37.1362 34.8613 37.0554C34.8265 36.9745 34.8087 36.8874 34.8088 36.7994C34.8036 36.7165 34.8155 36.6335 34.8437 36.5554C34.8718 36.4773 34.9157 36.4058 34.9726 36.3453C35.0296 36.2849 35.0983 36.2367 35.1745 36.2039C35.2508 36.171 35.3329 36.1541 35.416 36.1543H37.2374C37.4122 36.154 37.5804 36.2208 37.7075 36.3408C37.8345 36.4608 37.9108 36.6249 37.9205 36.7994C37.9257 36.8823 37.9138 36.9653 37.8856 37.0434C37.8575 37.1215 37.8136 37.193 37.7566 37.2535C37.6997 37.3139 37.631 37.3621 37.5548 37.3949C37.4785 37.4278 37.3964 37.4447 37.3133 37.4445Z"
            fill="#FFA719"
          />
          <path
            d="M40.8805 37.4445H42.702C42.785 37.4447 42.8672 37.4278 42.9435 37.3949C43.0197 37.3621 43.0884 37.3139 43.1453 37.2535C43.2022 37.193 43.2461 37.1215 43.2743 37.0434C43.3025 36.9653 43.3143 36.8823 43.3092 36.7994C43.2994 36.6249 43.2232 36.4608 43.0962 36.3408C42.9691 36.2208 42.8009 36.154 42.6261 36.1543H40.8046C40.7216 36.1541 40.6394 36.171 40.5632 36.2039C40.4869 36.2367 40.4182 36.2849 40.3613 36.3453C40.3044 36.4058 40.2605 36.4773 40.2323 36.5554C40.2041 36.6335 40.1923 36.7165 40.1975 36.7994C40.2072 36.9739 40.2834 37.138 40.4105 37.258C40.5375 37.378 40.7058 37.4448 40.8805 37.4445Z"
            fill="#FFA719"
          />
          <path
            d="M30.6068 33.6815C30.8406 33.4411 30.823 33.0449 30.5676 32.7965C30.3122 32.5481 29.9156 32.5416 29.6818 32.782C29.4481 33.0224 29.4656 33.4186 29.721 33.667C29.9764 33.9154 30.373 33.9219 30.6068 33.6815Z"
            fill="#FFE75C"
          />
          <path
            d="M29.2731 32.8223C29.39 32.7021 29.3873 32.51 29.2672 32.3931C29.147 32.2762 28.9548 32.2789 28.8379 32.3991C28.721 32.5193 28.7237 32.7115 28.8439 32.8283C28.9641 32.9452 29.1563 32.9425 29.2731 32.8223Z"
            fill="#FFE75C"
          />
          <path
            d="M49.0064 34.1112C49.547 33.5552 49.5102 32.6426 48.9242 32.0728C48.3382 31.503 47.425 31.4917 46.8844 32.0476C46.3438 32.6035 46.3805 33.5161 46.9665 34.086C47.5525 34.6558 48.4657 34.6671 49.0064 34.1112Z"
            fill="#F77518"
          />
          <path
            d="M48.8456 33.6771C49.0793 33.4367 49.0618 33.0405 48.8064 32.7921C48.5509 32.5437 48.1544 32.5372 47.9206 32.7776C47.6868 33.018 47.7044 33.4142 47.9598 33.6626C48.2152 33.911 48.6118 33.9175 48.8456 33.6771Z"
            fill="#FFE75C"
          />
          <path
            d="M47.4743 32.8177C47.5912 32.6975 47.5885 32.5053 47.4683 32.3884C47.3481 32.2715 47.1559 32.2742 47.039 32.3944C46.9221 32.5146 46.9248 32.7068 47.045 32.8237C47.1652 32.9406 47.3574 32.9379 47.4743 32.8177Z"
            fill="#FFE75C"
          />
          <path
            d="M38.3 51.5611L37.2754 51.9785C37.2273 52.0018 37.1873 52.039 37.1607 52.0853C37.134 52.1316 37.1219 52.1849 37.126 52.2382C37.1301 52.2914 37.1502 52.3422 37.1836 52.3839C37.2171 52.4256 37.2623 52.4563 37.3134 52.4719L38.3759 52.8513C38.8135 53.0306 39.1663 53.3698 39.3625 53.8L39.78 54.9005C39.8062 54.9479 39.8447 54.9875 39.8914 55.015C39.9381 55.0426 39.9914 55.0571 40.0456 55.0571C40.0998 55.0571 40.1531 55.0426 40.1998 55.015C40.2465 54.9875 40.285 54.9479 40.3112 54.9005L40.6148 53.8C40.6767 53.585 40.7878 53.3874 40.9393 53.2227C41.0908 53.0581 41.2785 52.9309 41.4876 52.8513L42.5122 52.4719C42.5826 52.4668 42.6482 52.434 42.6944 52.3806C42.7407 52.3273 42.7639 52.2577 42.7588 52.1873C42.7538 52.1168 42.721 52.0512 42.6676 52.005C42.6142 51.9587 42.5447 51.9356 42.4742 51.9406L41.4117 51.5611C41.1932 51.4859 40.9926 51.3661 40.8228 51.2093C40.653 51.0525 40.5175 50.8622 40.4251 50.6504L40.0077 49.5499C39.9814 49.5025 39.9429 49.4629 39.8962 49.4354C39.8495 49.4078 39.7962 49.3933 39.742 49.3933C39.6878 49.3933 39.6346 49.4078 39.5878 49.4354C39.5411 49.4629 39.5026 49.5025 39.4764 49.5499L39.1728 50.6504C39.1084 50.8598 38.996 51.0512 38.8444 51.2093C38.6929 51.3674 38.5065 51.4879 38.3 51.5611Z"
            fill="#FFA719"
          />
          <path
            d="M36.5167 18.3195L35.4163 17.94C35.3458 17.94 35.2782 17.912 35.2284 17.8622C35.1786 17.8124 35.1506 17.7448 35.1506 17.6744C35.1506 17.6039 35.1786 17.5363 35.2284 17.4865C35.2782 17.4367 35.3458 17.4087 35.4163 17.4087L36.4408 17.0293C36.6431 16.9387 36.8248 16.8079 36.9749 16.6448C37.125 16.4816 37.2402 16.2897 37.3136 16.0806L37.6172 14.9801C37.6435 14.9326 37.6819 14.8931 37.7287 14.8656C37.7754 14.838 37.8286 14.8235 37.8828 14.8235C37.9371 14.8235 37.9903 14.838 38.037 14.8656C38.0837 14.8931 38.1222 14.9326 38.1485 14.9801L38.5659 16.0806C38.658 16.297 38.7928 16.4926 38.9623 16.6556C39.1319 16.8187 39.3326 16.9457 39.5525 17.0293L40.615 17.4087C40.6646 17.4314 40.7071 17.467 40.7381 17.5117C40.7692 17.5565 40.7876 17.6088 40.7915 17.6631C40.7953 17.7174 40.7845 17.7718 40.7602 17.8205C40.7358 17.8692 40.6988 17.9105 40.653 17.94L39.5905 18.3195C39.3869 18.3976 39.2031 18.5197 39.0522 18.6772C38.9013 18.8346 38.7871 19.0235 38.7177 19.2302L38.4141 20.3307C38.3878 20.3781 38.3494 20.4177 38.3027 20.4452C38.2559 20.4728 38.2027 20.4873 38.1485 20.4873C38.0942 20.4873 38.041 20.4728 37.9943 20.4452C37.9476 20.4177 37.9091 20.3781 37.8828 20.3307L37.4654 19.2302C37.3812 19.0196 37.253 18.8295 37.0894 18.6724C36.9258 18.5154 36.7306 18.395 36.5167 18.3195Z"
            fill="#FFA719"
          />
          <path
            d="M26.6506 45.6034L25.626 45.148C25.5783 45.1303 25.5265 45.1267 25.4768 45.1375C25.4271 45.1484 25.3816 45.1732 25.3456 45.2092C25.3097 45.2452 25.2848 45.2907 25.2739 45.3404C25.2631 45.3901 25.2667 45.4419 25.2845 45.4896L25.8157 46.5141C25.9149 46.7205 25.9695 46.9454 25.976 47.1742C25.9825 47.403 25.9409 47.6306 25.8537 47.8423L25.3983 48.8669C25.3769 48.9238 25.3732 48.9858 25.3874 49.0448C25.4017 49.1039 25.4333 49.1573 25.4783 49.1982C25.5233 49.2391 25.5795 49.2655 25.6396 49.2741C25.6998 49.2827 25.7611 49.273 25.8157 49.2464L26.8024 48.7151C27.0114 48.622 27.2376 48.5739 27.4664 48.5739C27.6952 48.5739 27.9215 48.622 28.1305 48.7151L29.1551 49.1705C29.4207 49.2843 29.6484 49.0566 29.4966 48.8289L29.0033 47.8044C28.8879 47.6043 28.8209 47.3799 28.8077 47.1493C28.7945 46.9187 28.8355 46.6882 28.9274 46.4762L29.3828 45.4516C29.4966 45.2239 29.193 44.9583 28.9653 45.0722L27.9787 45.6034C27.7697 45.6965 27.5435 45.7447 27.3146 45.7447C27.0858 45.7447 26.8596 45.6965 26.6506 45.6034Z"
            fill="#FFA719"
          />
          <path
            d="M48.9253 22.076L48.3941 21.0515C48.3764 21.0038 48.3727 20.952 48.3835 20.9023C48.3944 20.8526 48.4193 20.8071 48.4552 20.7711C48.4912 20.7351 48.5367 20.7103 48.5864 20.6994C48.6361 20.6886 48.6879 20.6922 48.7356 20.7099L49.7981 21.1653C50 21.2601 50.2202 21.3092 50.4432 21.3092C50.6662 21.3092 50.8865 21.2601 51.0883 21.1653L52.1129 20.634C52.1657 20.6178 52.2218 20.6163 52.2754 20.6296C52.329 20.6428 52.3779 20.6705 52.4169 20.7095C52.4559 20.7485 52.4836 20.7975 52.4969 20.851C52.5102 20.9046 52.5086 20.9608 52.4924 21.0135L52.037 22.0381C51.9451 22.25 51.9041 22.4806 51.9173 22.7112C51.9305 22.9418 51.9975 23.1662 52.1129 23.3663L52.6442 24.3908C52.758 24.6185 52.5303 24.8462 52.2647 24.7324L51.2401 24.277C51.0311 24.1839 50.8049 24.1357 50.5761 24.1357C50.3472 24.1357 50.121 24.1839 49.912 24.277L48.9253 24.8083C48.8726 24.8245 48.8164 24.8261 48.7629 24.8128C48.7093 24.7995 48.6604 24.7718 48.6213 24.7328C48.5823 24.6938 48.5547 24.6448 48.5414 24.5913C48.5281 24.5377 48.5296 24.4815 48.5459 24.4288L48.9633 23.4042C49.0609 23.1952 49.1083 22.9662 49.1017 22.7356C49.0951 22.505 49.0347 22.2792 48.9253 22.076Z"
            fill="#FFA719"
          />
          <path
            d="M52.3786 45.6037L53.3652 45.1483C53.4163 45.1262 53.4725 45.1186 53.5276 45.1263C53.5828 45.134 53.6348 45.1567 53.6778 45.192C53.7209 45.2273 53.7535 45.2737 53.772 45.3262C53.7905 45.3787 53.7941 45.4353 53.7826 45.4898L53.3652 46.5144C53.2733 46.7263 53.2323 46.9568 53.2455 47.1875C53.2587 47.4181 53.3257 47.6424 53.4411 47.8425L54.0103 48.8671C54.0606 48.9174 54.0889 48.9857 54.0889 49.0569C54.0889 49.128 54.0606 49.1963 54.0103 49.2466C53.96 49.2969 53.8917 49.3252 53.8206 49.3252C53.7494 49.3252 53.6811 49.2969 53.6308 49.2466L52.6062 48.7153C52.3972 48.6222 52.171 48.5741 51.9422 48.5741C51.7133 48.5741 51.4871 48.6222 51.2781 48.7153L50.2915 49.1707C50.2426 49.2012 50.1851 49.215 50.1276 49.2099C50.0702 49.2049 50.016 49.1813 49.9732 49.1428C49.9303 49.1042 49.9012 49.0528 49.8902 48.9962C49.8791 48.9396 49.8868 48.881 49.912 48.8292L50.3294 47.8046C50.405 47.5877 50.4339 47.3572 50.4143 47.1284C50.3947 46.8995 50.327 46.6773 50.2156 46.4764L49.6843 45.4519C49.6538 45.403 49.64 45.3455 49.6451 45.2881C49.6501 45.2306 49.6737 45.1764 49.7122 45.1336C49.7508 45.0907 49.8022 45.0616 49.8588 45.0506C49.9154 45.0395 49.974 45.0472 50.0258 45.0724L51.0883 45.6037C51.2902 45.6984 51.5105 45.7476 51.7334 45.7476C51.9564 45.7476 52.1767 45.6984 52.3786 45.6037Z"
            fill="#FFA719"
          />
          <path
            d="M27.5993 22.0762L28.0167 21.0516C28.0283 20.9971 28.0246 20.9405 28.0061 20.888C27.9876 20.8355 27.9551 20.789 27.912 20.7538C27.8689 20.7185 27.8169 20.6958 27.7618 20.6881C27.7066 20.6804 27.6504 20.688 27.5993 20.7101L26.6127 21.1654C26.4108 21.2602 26.1906 21.3093 25.9676 21.3093C25.7446 21.3093 25.5243 21.2602 25.3225 21.1654L24.26 20.6342C24.2081 20.609 24.1495 20.6013 24.0929 20.6123C24.0364 20.6234 23.9849 20.6525 23.9464 20.6954C23.9078 20.7382 23.8842 20.7924 23.8792 20.8498C23.8742 20.9072 23.8879 20.9647 23.9184 21.0136L24.4497 22.0382C24.5611 22.2391 24.6288 22.4613 24.6484 22.6901C24.668 22.919 24.6391 23.1494 24.5635 23.3664L24.1461 24.3909C24.1209 24.4428 24.1133 24.5014 24.1243 24.558C24.1353 24.6145 24.1645 24.666 24.2073 24.7045C24.2501 24.7431 24.3044 24.7667 24.3618 24.7717C24.4192 24.7767 24.4767 24.763 24.5256 24.7325L25.5122 24.2771C25.7212 24.184 25.9475 24.1359 26.1763 24.1359C26.4051 24.1359 26.6314 24.184 26.8404 24.2771L27.8649 24.8084C27.9153 24.8587 27.9835 24.887 28.0547 24.887C28.1258 24.887 28.1941 24.8587 28.2444 24.8084C28.2947 24.758 28.323 24.6898 28.323 24.6186C28.323 24.5475 28.2947 24.4792 28.2444 24.4289L27.6752 23.4043C27.5598 23.2042 27.4928 22.9799 27.4796 22.7492C27.4664 22.5186 27.5074 22.2881 27.5993 22.0762Z"
            fill="#FFA719"
          />
        </g>
        <defs>
          <clipPath id="clip0_680_12350">
            <rect width="68" height="70" fill="white" />
          </clipPath>
        </defs>
      </svg>
